<?xml version="1.0" encoding="UTF-8" standalone="no"?>
<!-- Created with Inkscape (http://www.inkscape.org/) -->

<svg
   width="420mm"
   height="594mm"
   viewBox="0 0 420 594"
   version="1.1"
   id="svg1"
   xml:space="preserve"
   sodipodi:docname="serce.svg"
   inkscape:version="1.4.2 (f4327f4, 2025-05-13)"
   inkscape:export-batch-path="/Users/majaszczypka/Desktop"
   inkscape:export-batch-name="h1"
   inkscape:export-filename="serce.svg"
   inkscape:export-xdpi="96"
   inkscape:export-ydpi="96"
   xmlns:inkscape="http://www.inkscape.org/namespaces/inkscape"
   xmlns:sodipodi="http://sodipodi.sourceforge.net/DTD/sodipodi-0.dtd"
   xmlns="http://www.w3.org/2000/svg"
   xmlns:svg="http://www.w3.org/2000/svg"><sodipodi:namedview
     id="namedview1"
     pagecolor="#ffffff"
     bordercolor="#000000"
     borderopacity="0.25"
     inkscape:showpageshadow="2"
     inkscape:pageopacity="0.0"
     inkscape:pagecheckerboard="0"
     inkscape:deskcolor="#d1d1d1"
     inkscape:document-units="mm"
     inkscape:zoom="0.27552033"
     inkscape:cx="275.84172"
     inkscape:cy="1437.2805"
     inkscape:window-width="1472"
     inkscape:window-height="920"
     inkscape:window-x="0"
     inkscape:window-y="36"
     inkscape:window-maximized="0"
     inkscape:current-layer="svg1"
     inkscape:export-bgcolor="#ffffffff" /><defs
     id="defs1"><inkscape:path-effect
       effect="simplify"
       id="path-effect7"
       is_visible="true"
       lpeversion="1.3"
       threshold="52.0048"
       steps="1"
       smooth_angles="360"
       helper_size="0"
       simplify_individual_paths="false"
       simplify_just_coalesce="false" /><inkscape:path-effect
       effect="simplify"
       id="path-effect6"
       is_visible="true"
       lpeversion="1.3"
       threshold="4.0096"
       steps="1"
       smooth_angles="360"
       helper_size="0"
       simplify_individual_paths="false"
       simplify_just_coalesce="false" /><inkscape:path-effect
       effect="simplify"
       id="path-effect5"
       is_visible="true"
       lpeversion="1.3"
       threshold="9.9"
       steps="6"
       smooth_angles="360"
       helper_size="10"
       simplify_individual_paths="false"
       simplify_just_coalesce="false" /><filter
       style="color-interpolation-filters:sRGB"
       id="filter82"
       x="-0.0046915277"
       y="-0.0054842085"
       width="1.0093831"
       height="1.0109684"><feGaussianBlur
         stdDeviation="0.24326023"
         id="feGaussianBlur82" /></filter><filter
       style="color-interpolation-filters:sRGB"
       id="filter147"
       x="-0.017213112"
       y="-0.019981489"
       width="1.0344262"
       height="1.039963"><feGaussianBlur
         stdDeviation="0.91154519"
         id="feGaussianBlur147" /></filter><filter
       style="color-interpolation-filters:sRGB"
       id="filter148"
       x="-0.2473903"
       y="-1.0058689"
       width="1.4947806"
       height="3.0117378"><feGaussianBlur
         stdDeviation="0.93890151"
         id="feGaussianBlur148" /></filter><filter
       style="color-interpolation-filters:sRGB"
       id="filter148-1"
       x="-0.2473903"
       y="-1.0058689"
       width="1.4947806"
       height="3.0117378"><feGaussianBlur
         stdDeviation="0.93890151"
         id="feGaussianBlur148-2" /></filter><filter
       style="color-interpolation-filters:sRGB"
       id="filter169"
       x="-0.023117429"
       y="-0.027141707"
       width="1.0462348"
       height="1.0542834"><feGaussianBlur
         stdDeviation="1.4366281"
         id="feGaussianBlur169" /></filter><inkscape:path-effect
       effect="simplify"
       id="path-effect6-3"
       is_visible="true"
       lpeversion="1.3"
       threshold="4.0096"
       steps="1"
       smooth_angles="360"
       helper_size="0"
       simplify_individual_paths="false"
       simplify_just_coalesce="false" /><inkscape:path-effect
       effect="simplify"
       id="path-effect7-6"
       is_visible="true"
       lpeversion="1.3"
       threshold="52.0048"
       steps="1"
       smooth_angles="360"
       helper_size="0"
       simplify_individual_paths="false"
       simplify_just_coalesce="false" /><inkscape:path-effect
       effect="simplify"
       id="path-effect6-4"
       is_visible="true"
       lpeversion="1.3"
       threshold="0.0169"
       steps="1"
       smooth_angles="360"
       helper_size="0"
       simplify_individual_paths="false"
       simplify_just_coalesce="false" /><inkscape:path-effect
       effect="simplify"
       id="path-effect7-3"
       is_visible="true"
       lpeversion="1.3"
       threshold="0.0049"
       steps="15"
       smooth_angles="360"
       helper_size="0"
       simplify_individual_paths="false"
       simplify_just_coalesce="false" /><inkscape:path-effect
       effect="simplify"
       id="path-effect7-38"
       is_visible="true"
       lpeversion="1.3"
       threshold="52.0048"
       steps="1"
       smooth_angles="360"
       helper_size="0"
       simplify_individual_paths="false"
       simplify_just_coalesce="false" /><filter
       style="color-interpolation-filters:sRGB"
       id="filter148-1-7"
       x="-0.2473903"
       y="-1.0058689"
       width="1.4947806"
       height="3.0117378"><feGaussianBlur
         stdDeviation="0.93890151"
         id="feGaussianBlur148-2-0" /></filter><filter
       style="color-interpolation-filters:sRGB;"
       inkscape:label="Drop Shadow"
       id="filter71"
       x="-0.083546484"
       y="-0.092851174"
       width="1.167066"
       height="1.1855924"><feFlood
         result="flood"
         in="SourceGraphic"
         flood-opacity="0.498039"
         flood-color="rgb(0,0,0)"
         id="feFlood70" /><feGaussianBlur
         result="blur"
         in="SourceGraphic"
         stdDeviation="4.200000"
         id="feGaussianBlur70" /><feOffset
         result="offset"
         in="blur"
         dx="0.000000"
         dy="0.000000"
         id="feOffset70" /><feComposite
         result="comp1"
         operator="in"
         in="flood"
         in2="offset"
         id="feComposite70" /><feComposite
         result="fbSourceGraphic"
         operator="over"
         in="SourceGraphic"
         in2="comp1"
         id="feComposite71" /><feColorMatrix
         result="fbSourceGraphicAlpha"
         in="fbSourceGraphic"
         values="0 0 0 -1 0 0 0 0 -1 0 0 0 0 -1 0 0 0 0 1 0"
         id="feColorMatrix71" /><feGaussianBlur
         id="feGaussianBlur71"
         stdDeviation="0.2 0.2"
         result="fbSourceGraphic"
         in="fbSourceGraphic" /><feColorMatrix
         result="fbSourceGraphicAlpha"
         in="fbSourceGraphic"
         values="0 0 0 -1 0 0 0 0 -1 0 0 0 0 -1 0 0 0 0 1 0"
         id="feColorMatrix92" /><feFlood
         id="feFlood92"
         result="flood"
         in="fbSourceGraphic"
         flood-opacity="0.498039"
         flood-color="rgb(0,0,0)" /><feGaussianBlur
         id="feGaussianBlur92"
         result="blur"
         in="fbSourceGraphic"
         stdDeviation="2.000000" /><feOffset
         id="feOffset92"
         result="offset"
         in="blur"
         dx="0.000000"
         dy="0.000000" /><feComposite
         id="feComposite92"
         result="comp1"
         operator="in"
         in="flood"
         in2="offset" /><feComposite
         id="feComposite93"
         result="comp2"
         operator="over"
         in="fbSourceGraphic"
         in2="comp1" /></filter><filter
       style="color-interpolation-filters:sRGB;"
       inkscape:label="Drop Shadow"
       id="filter155"
       x="-0.012734886"
       y="-0.012109083"
       width="1.0254698"
       height="1.0242182"><feFlood
         result="flood"
         in="SourceGraphic"
         flood-opacity="0.498039"
         flood-color="rgb(0,0,0)"
         id="feFlood154" /><feGaussianBlur
         result="blur"
         in="SourceGraphic"
         stdDeviation="0.500000"
         id="feGaussianBlur154" /><feOffset
         result="offset"
         in="blur"
         dx="0.000000"
         dy="0.000000"
         id="feOffset154" /><feComposite
         result="comp1"
         operator="in"
         in="flood"
         in2="offset"
         id="feComposite154" /><feComposite
         result="comp2"
         operator="over"
         in="SourceGraphic"
         in2="comp1"
         id="feComposite155" /></filter><filter
       style="color-interpolation-filters:sRGB;"
       inkscape:label="Drop Shadow"
       id="filter157"
       x="-0.018121773"
       y="-0.010986712"
       width="1.0362435"
       height="1.0219734"><feFlood
         result="flood"
         in="SourceGraphic"
         flood-opacity="0.498039"
         flood-color="rgb(0,0,0)"
         id="feFlood155" /><feGaussianBlur
         result="blur"
         in="SourceGraphic"
         stdDeviation="0.500000"
         id="feGaussianBlur155" /><feOffset
         result="offset"
         in="blur"
         dx="0.000000"
         dy="0.000000"
         id="feOffset155" /><feComposite
         result="comp1"
         operator="in"
         in="flood"
         in2="offset"
         id="feComposite156" /><feComposite
         result="comp2"
         operator="over"
         in="SourceGraphic"
         in2="comp1"
         id="feComposite157" /></filter><filter
       style="color-interpolation-filters:sRGB;"
       inkscape:label="Drop Shadow"
       id="filter159"
       x="-0.019115693"
       y="-0.011344734"
       width="1.0382314"
       height="1.0226895"><feFlood
         result="flood"
         in="SourceGraphic"
         flood-opacity="0.498039"
         flood-color="rgb(0,0,0)"
         id="feFlood158" /><feGaussianBlur
         result="blur"
         in="SourceGraphic"
         stdDeviation="0.500000"
         id="feGaussianBlur158" /><feOffset
         result="offset"
         in="blur"
         dx="0.000000"
         dy="0.000000"
         id="feOffset158" /><feComposite
         result="comp1"
         operator="out"
         in="flood"
         in2="offset"
         id="feComposite158" /><feComposite
         result="comp2"
         operator="atop"
         in="comp1"
         in2="SourceGraphic"
         id="feComposite159" /></filter><filter
       style="color-interpolation-filters:sRGB;"
       inkscape:label="Drop Shadow"
       id="filter161"
       x="-0.013269954"
       y="-0.012547688"
       width="1.0265399"
       height="1.0250954"><feFlood
         result="flood"
         in="SourceGraphic"
         flood-opacity="0.498039"
         flood-color="rgb(0,0,0)"
         id="feFlood160" /><feGaussianBlur
         result="blur"
         in="SourceGraphic"
         stdDeviation="0.500000"
         id="feGaussianBlur160" /><feOffset
         result="offset"
         in="blur"
         dx="0.000000"
         dy="0.000000"
         id="feOffset160" /><feComposite
         result="comp1"
         operator="out"
         in="flood"
         in2="offset"
         id="feComposite160" /><feComposite
         result="comp2"
         operator="atop"
         in="comp1"
         in2="SourceGraphic"
         id="feComposite161" /></filter></defs><path
     id="path1"
     style="display:inline;opacity:1;fill:#ff8080;stroke:#ff8080;stroke-width:2.5;stroke-dasharray:none;paint-order:markers stroke fill;filter:url(#filter71)"
     d="m 295.28154,350.30532 c 0.88222,22.84204 -7.44448,48.56123 -28.21453,60.53556 -12.77806,6.41442 -27.44263,7.56754 -41.44921,9.19372 -25.57495,1.80072 -53.6586,-0.81897 -74.26353,-17.61199 -12.89072,-10.03169 -22.28111,-23.99282 -28.14031,-39.13105 -7.51125,-13.77943 -24.291265,-22.41617 -25.710895,-39.31684 -5.188791,-21.85353 9.646345,-46.84675 32.413625,-50.28712 20.21172,-4.96934 41.67156,-10.28322 56.96114,-25.35567 18.44499,-10.88453 46.06509,-9.61367 59.47601,8.60709 5.30958,10.36538 12.90376,19.29054 22.24289,26.29653 9.86827,7.79509 19.44111,17.52843 21.59029,30.43653 3.80467,11.80038 5.20298,24.2702 5.09452,36.63324 z"
     inkscape:label="heart_shape"
     sodipodi:nodetypes="cccccccccccc" /><g
     id="path3-5"
     inkscape:label="right_inside"
     style="opacity:1;filter:url(#filter155)"
     transform="matrix(1.2841212,0,0,1.3172841,-167.1469,211.47319)"><path
       style="baseline-shift:baseline;display:inline;overflow:visible;vector-effect:none;fill:#6c97f4;paint-order:stroke fill markers;enable-background:accumulate;stop-color:#000000;stop-opacity:1"
       d="m 241.76758,52.652344 c -1.29221,0.07365 -2.58137,0.245617 -3.85156,0.523437 -0.7256,0.158707 -1.44332,0.352748 -2.15235,0.580078 -0.003,8.21e-4 -0.005,0.0011 -0.008,0.002 -1.36244,0.194019 -2.71124,0.476168 -4.01953,0.888672 -1.72032,0.54242 -3.3788,1.264484 -4.94727,2.146485 -1.8496,1.040083 -3.5735,2.300756 -5.12304,3.753906 -1.1591,1.086997 -2.21996,2.282585 -3.16016,3.570312 -0.81974,1.122744 -1.54788,2.315354 -2.16602,3.566407 -0.56701,1.147611 -1.04076,2.343201 -1.41211,3.572265 -0.26615,0.880918 -0.39862,1.669912 -0.5664,2.322266 -0.32724,1.272352 -0.54794,2.566358 -0.66992,3.867187 -0.13442,1.433404 -0.14908,2.87543 -0.0469,4.308594 0.10248,1.436891 0.32263,2.865865 0.66016,4.269531 v 0.002 c 0.31727,1.31938 0.73902,2.615954 1.26953,3.873046 0.47993,1.137264 1.04825,2.241809 1.70898,3.294922 0.6149,0.980057 1.30966,1.914559 2.08203,2.78711 0.69415,0.784173 1.44976,1.515855 2.26368,2.183593 0.28369,0.232746 0.57415,0.457491 0.87109,0.673829 0.19898,0.14497 0.40086,0.286597 0.60547,0.423828 0.1713,0.114894 0.34456,0.226684 0.51953,0.335937 0.17588,0.109812 0.35376,0.216322 0.5332,0.320313 0.14429,0.08363 0.28914,0.166341 0.43555,0.246091 l 0.004,0.002 0.10742,0.0566 0.23437,0.125 0.24024,0.082 0.10937,0.0352 0.10938,0.0352 0.10937,0.0332 0.10938,0.0332 0.10937,0.0312 0.10742,0.0312 0.10938,0.0293 0.10937,0.0274 0.10938,0.0273 0.10937,0.0254 0.10938,0.0254 0.10742,0.0254 0.10938,0.0234 0.10937,0.0215 0.10547,0.0215 h 0.004 c 0.1081,0.0206 0.2154,0.0388 0.32421,0.0566 0.10817,0.0178 0.21606,0.0358 0.32422,0.0508 0.1079,0.0149 0.21644,0.0268 0.32422,0.0391 0.14335,0.0163 0.28654,0.0314 0.42969,0.043 0.28515,0.0231 0.57034,0.0373 0.85352,0.043 0.70676,0.0143 1.40334,-0.0243 2.08593,-0.0996 0.75662,-0.0835 1.49397,-0.21332 2.21289,-0.36914 0.82879,-0.17963 1.63484,-0.39395 2.41993,-0.621093 1.45943,-0.422252 2.85534,-0.885704 4.22265,-1.277344 0.44282,-0.126836 0.8763,-0.224132 1.3125,-0.332031 -0.0834,0.04793 -0.16957,0.09078 -0.25195,0.140625 -0.37314,0.22576 -0.7345,0.469403 -1.08203,0.732422 -0.60424,0.457274 -1.16314,0.968021 -1.67383,1.521481 -0.55003,0.59608 -1.04135,1.24081 -1.4707,1.91797 -0.48259,0.76114 -0.88592,1.56146 -1.2168,2.38672 -0.35823,0.89351 -0.63067,1.81547 -0.82227,2.74805 -0.21288,1.03617 -0.32659,2.08735 -0.34765,3.13867 -0.0218,1.08646 0.055,2.17448 0.23242,3.24805 0.16587,1.00395 0.41839,1.99696 0.76367,2.96289 0.17855,0.49948 0.3846,1.00752 0.63086,1.51367 0.59621,1.22537 1.25904,2.41365 1.97656,3.5625 0.77011,1.23305 1.60268,2.42027 2.48242,3.56445 0.94391,1.22761 1.94177,2.40473 2.97852,3.53906 1.08517,1.18732 2.21186,2.32773 3.36719,3.42969 1.27354,1.21474 2.58187,2.38508 3.9082,3.52149 0.62076,0.53186 1.26703,1.10744 1.98828,1.66992 1.67479,1.30611 3.3995,2.55654 5.17383,3.73633 1.70068,1.13082 3.44752,2.198 5.24414,3.18554 1.70815,0.93892 3.46029,1.80648 5.25586,2.58594 1.69983,0.7379 3.43951,1.39634 5.21289,1.96094 1.67747,0.53407 3.38511,0.98274 5.11719,1.33398 1.64194,0.33296 3.30448,0.57782 4.97851,0.72461 1.07199,0.094 2.17866,0.16871 3.31836,0.16016 0.95664,-0.007 1.92479,0.005 2.9043,0.0176 1.21619,0.0147 2.45102,0.0282 3.70313,0.004 0.95024,-0.0181 1.91171,-0.0576 2.88085,-0.13867 0.88421,-0.074 1.77446,-0.1829 2.66797,-0.3418 0.8357,-0.14862 1.67257,-0.34084 2.50196,-0.59179 0.75542,-0.22857 1.50296,-0.50537 2.23242,-0.83594 0.66773,-0.30259 1.3178,-0.64867 1.94336,-1.04102 l 0.002,-0.002 0.0684,-0.043 0.31055,-0.19922 0.18359,-0.22461 c 0.0545,-0.0673 0.1084,-0.13634 0.16016,-0.20507 0.0507,-0.0675 0.10121,-0.13827 0.15039,-0.20899 v -0.002 c 0.0468,-0.0674 0.0943,-0.13647 0.14062,-0.20899 0.045,-0.0704 0.0901,-0.14145 0.13282,-0.21484 0.041,-0.0704 0.0799,-0.14447 0.11914,-0.21875 h 0.002 c 0.0373,-0.0706 0.0731,-0.1441 0.10937,-0.2207 l 0.002,-0.006 0.0332,-0.0684 0.0332,-0.0742 0.0312,-0.0742 0.0312,-0.0762 0.0312,-0.0742 0.0274,-0.0762 0.0273,-0.0762 0.0273,-0.0781 0.0215,-0.0684 0.002,-0.006 c 0.0245,-0.0772 0.0477,-0.15468 0.0684,-0.23242 0.0207,-0.0779 0.0383,-0.15323 0.0547,-0.22852 v -0.002 c 0.0168,-0.0779 0.0322,-0.1545 0.0449,-0.23047 v -0.006 l 0.002,-0.006 c 0.0105,-0.0649 0.0215,-0.13737 0.0312,-0.21875 v -0.004 c 0.01,-0.0813 0.0165,-0.15606 0.0215,-0.22461 v -0.006 c 0.009,-0.11675 0.0124,-0.21652 0.0137,-0.29883 v -0.006 -0.006 c 0.001,-0.13277 -0.003,-0.25654 -0.01,-0.37109 l -0.002,-0.004 v -0.004 c -0.0233,-0.35528 -0.0816,-0.69505 -0.16601,-1.01758 -0.11905,-0.45462 -0.28573,-0.86998 -0.47266,-1.25 -0.19905,-0.40469 -0.42461,-0.77512 -0.65625,-1.11719 -0.2597,-0.38348 -0.53189,-0.73946 -0.80664,-1.07422 -0.33228,-0.40485 -0.67157,-0.78387 -1.00586,-1.14844 -0.58102,-0.63364 -1.15396,-1.22643 -1.68359,-1.81054 -0.29039,-0.32024 -0.5659,-0.63556 -0.81836,-0.94922 -0.20743,-0.25772 -0.39692,-0.50992 -0.5625,-0.75977 -0.15558,-0.23474 -0.28596,-0.46063 -0.38868,-0.67773 0.0723,0.15279 0.052,-0.15137 -0.33984,-0.7461 -1.27433,-1.93406 -2.48395,-3.90439 -3.61719,-5.91601 -1.07646,-1.91087 -2.08289,-3.8593 -3.0039,-5.8418 -0.88739,-1.91007 -1.69695,-3.85256 -2.41211,-5.82617 -0.6762,-1.86608 -1.26813,-3.76053 -1.76563,-5.67578 -0.26037,-1.00239 -0.3429,-2.34283 -0.88476,-3.83789 -0.28092,-0.77507 -0.54244,-1.56889 -0.79883,-2.37695 -0.38121,-1.20145 -0.75026,-2.43044 -1.1543,-3.67188 -0.29487,-0.906017 -0.60691,-1.819763 -0.95898,-2.732421 -0.30821,-0.79894 -0.64784,-1.598459 -1.03125,-2.388672 -0.35408,-0.729739 -0.74598,-1.451462 -1.18946,-2.154297 -0.41084,-0.651139 -0.86445,-1.28378 -1.36718,-1.886719 -0.45147,-0.541473 -0.9421,-1.055751 -1.46875,-1.535156 -0.5197,-0.473064 -1.07202,-0.910263 -1.6543,-1.304688 -0.16128,-0.109242 -0.31825,-0.209064 -0.4668,-0.302734 -0.68606,-0.4326 -1.40727,-0.809484 -2.15625,-1.126953 -0.75768,-0.321164 -1.5389,-0.579236 -2.33593,-0.771484 -0.85128,-0.205332 -1.71659,-0.335869 -2.58204,-0.396485 -0.93179,-0.06526 -1.86262,-0.04856 -2.78125,0.03711 -0.99292,0.09259 -1.9709,0.265681 -2.92578,0.507812 -1.02974,0.261115 -2.03309,0.602015 -3.0039,1.007813 -0.69639,0.291092 -1.3512,0.661688 -2.01367,1.017578 0.13586,-0.145175 0.25997,-0.290767 0.40625,-0.435547 0.35085,-0.347269 0.72497,-0.692343 1.11523,-1.041016 0.67038,-0.598943 1.38302,-1.207736 2.09766,-1.86914 0.41954,-0.388291 0.84206,-0.795952 1.2539,-1.236329 0.35709,-0.381819 0.71001,-0.790156 1.04102,-1.232421 0.30906,-0.412967 0.59999,-0.855818 0.85742,-1.335938 0.22291,-0.415743 0.41832,-0.85697 0.57422,-1.320312 0.15119,-0.449377 0.26258,-0.912811 0.33008,-1.386719 0.0675,-0.473602 0.0891,-0.94875 0.0703,-1.417969 -0.0276,-0.693485 -0.14745,-1.089267 -0.1543,-1.208984 -0.0848,-1.48278 -0.29613,-2.957467 -0.6289,-4.402344 -0.34104,-1.480744 -0.80946,-2.931405 -1.40235,-4.333984 -0.53833,-1.273503 -1.1811,-2.506699 -1.92578,-3.679688 -0.66887,-1.053577 -1.42023,-2.059309 -2.25391,-2.998047 -0.76532,-0.861768 -1.59897,-1.666692 -2.49609,-2.40039 -0.82348,-0.673483 -1.70031,-1.285834 -2.62109,-1.826172 -0.78354,-0.459792 -1.52277,-0.776533 -2.14844,-1.089844 -1.50318,-0.752743 -3.07397,-1.369267 -4.6875,-1.837891 -1.5395,-0.447119 -3.12068,-0.760362 -4.71875,-0.93164 -1.41243,-0.15138 -2.83948,-0.190553 -4.26367,-0.109375 z m 0.20508,3.564453 c 1.22334,-0.06973 2.4556,-0.03549 3.67968,0.0957 1.38537,0.148481 2.75978,0.420849 4.10157,0.810547 1.40622,0.408414 2.7754,0.94432 4.08398,1.599609 0.74181,0.371474 1.40593,0.664291 1.94141,0.978516 0.75826,0.444965 1.4826,0.950836 2.16601,1.509765 0.74537,0.609592 1.4444,1.283223 2.08789,2.007813 0.70161,0.790029 1.33996,1.640907 1.91016,2.539062 0.63514,1.000443 1.18644,2.058715 1.65039,3.15625 0.51101,1.208887 0.91567,2.466048 1.21094,3.748047 0.28801,1.250511 0.4698,2.523967 0.54297,3.802735 0.0385,0.67253 0.14837,1.048772 0.15234,1.148437 0.0104,0.261495 -0.001,0.521011 -0.0371,0.771485 -0.036,0.253097 -0.0967,0.505395 -0.17969,0.751953 -0.0867,0.257689 -0.19947,0.516965 -0.33593,0.771484 -0.15913,0.296787 -0.3514,0.592252 -0.57032,0.884766 -0.23519,0.31425 -0.50089,0.623514 -0.78906,0.93164 -0.33187,0.354864 -0.69091,0.705502 -1.07031,1.056641 -0.64451,0.596502 -1.34226,1.191405 -2.05274,1.826172 -0.41343,0.369376 -0.83282,0.753085 -1.24804,1.164062 -0.35665,0.352994 -0.71258,0.727917 -1.05469,1.134766 -0.13086,0.155628 -0.22047,0.28216 -0.28516,0.369141 l -0.002,0.002 c -0.14927,0.200897 -0.28897,0.398134 -0.42188,0.589843 -0.22862,0.329774 -0.44863,0.66139 -0.6621,0.992188 -0.26259,0.406895 -0.51729,0.820164 -0.76563,1.240234 -0.20036,0.338915 -0.39761,0.68486 -0.58789,1.042969 -0.13444,0.253007 -0.26891,0.516909 -0.39648,0.792969 -0.0988,0.213815 -0.19897,0.445871 -0.29102,0.699219 -0.0721,0.198301 -0.15381,0.443473 -0.20898,0.742187 v 0.002 0.002 c -0.0316,0.172632 -0.0646,0.412593 -0.0391,0.720703 v 0.0039 0.0059 c 0.0204,0.232548 0.0745,0.576696 0.32617,0.964844 0.16338,0.251991 0.38332,0.471074 0.66993,0.636719 0.37362,0.216084 0.71224,0.264297 0.96679,0.271484 0.34664,0.0095 0.59087,-0.05685 0.73828,-0.09961 0.30708,-0.08908 0.52454,-0.203671 0.67188,-0.28125 1.21454,-0.639469 1.69173,-1.457311 1.95703,-1.669922 0.74068,-0.593582 1.52309,-1.135836 2.33789,-1.623047 0.81867,-0.489523 1.6682,-0.921452 2.54297,-1.28711 0.81765,-0.341778 1.6564,-0.624444 2.50586,-0.839843 0.78687,-0.199529 1.58241,-0.341744 2.37891,-0.416016 0.7364,-0.06867 1.47455,-0.08019 2.20117,-0.0293 0.675,0.04728 1.34213,0.149844 1.99219,0.306641 0.6095,0.147016 1.20675,0.342419 1.78125,0.585937 0.56922,0.241278 1.11959,0.530325 1.64453,0.861328 0.1313,0.08279 0.25442,0.161932 0.36718,0.238282 0.4406,0.29845 0.86194,0.629701 1.25586,0.988281 0.40033,0.364409 0.77577,0.760442 1.12696,1.181641 0.39227,0.470461 0.75506,0.973319 1.08984,1.503906 0.36225,0.574107 0.69313,1.180178 0.99805,1.808594 0.33042,0.681008 0.63185,1.38875 0.91211,2.115234 0.32003,0.829605 0.6135,1.683255 0.89648,2.552735 0.38738,1.19024 0.75433,2.41053 1.14649,3.64648 0.26387,0.83166 0.53842,1.67127 0.84375,2.51368 0.31523,0.86977 0.41314,2.08735 0.78515,3.51953 0.52704,2.02897 1.15513,4.02908 1.86719,5.99414 0.75298,2.07799 1.6011,4.11731 2.5293,6.11523 0.9633,2.07353 2.01232,4.10236 3.13086,6.08789 1.17752,2.09024 2.4322,4.13184 3.74804,6.12891 -0.18316,-0.27799 -0.1427,-0.187 0.0918,0.30859 0.19363,0.40926 0.41361,0.78052 0.64062,1.12305 0.24362,0.3676 0.50093,0.70817 0.75782,1.02734 0.31502,0.3914 0.63565,0.75731 0.95312,1.10742 0.58195,0.64182 1.15992,1.23821 1.69727,1.82422 0.30979,0.33786 0.60453,0.67003 0.87695,1.00196 0.22425,0.27324 0.42988,0.54261 0.61133,0.81054 0.16046,0.23696 0.29846,0.46829 0.4082,0.69141 0.10135,0.20604 0.17611,0.40036 0.22266,0.57812 0.0325,0.12415 0.0517,0.24202 0.0586,0.34766 0.003,0.0448 0.002,0.0843 0.002,0.11328 l 0.002,-0.0117 c -7.3e-4,0.0477 -0.003,0.0781 -0.004,0.0898 v 0.002 0.004 c -0.002,0.028 -0.004,0.0487 -0.006,0.0625 v 0.002 l -0.002,0.002 c -0.002,0.0165 -0.004,0.0413 -0.01,0.0742 -0.004,0.0203 -0.008,0.0405 -0.0117,0.0586 -0.005,0.0243 -0.0101,0.0457 -0.0156,0.0664 -0.006,0.0231 -0.0125,0.0462 -0.0195,0.0684 l -0.01,0.0273 -0.008,0.0234 -0.008,0.0234 -0.01,0.0254 -0.01,0.0254 -0.0117,0.0254 -0.01,0.0254 -0.0117,0.0273 -0.0176,0.0371 c -0.0112,0.0233 -0.0232,0.0459 -0.0371,0.0723 -0.0151,0.0286 -0.0312,0.0577 -0.0488,0.0879 -0.0174,0.03 -0.0372,0.0614 -0.0566,0.0918 -0.0136,0.0212 -0.0297,0.044 -0.0449,0.0664 -0.4436,0.27025 -0.90193,0.52214 -1.37891,0.73829 -0.576,0.26102 -1.1748,0.48347 -1.79102,0.66992 -0.67819,0.2052 -1.37898,0.36702 -2.09375,0.49414 -0.76518,0.13608 -1.54742,0.23238 -2.34179,0.29883 -0.87082,0.0728 -1.75481,0.10987 -2.65039,0.12695 -1.17804,0.0229 -2.37591,0.0108 -3.58985,-0.004 h -0.002 c -0.97913,-0.0121 -1.97051,-0.0247 -2.97266,-0.0176 -0.96297,0.007 -1.95777,-0.0588 -2.98047,-0.14844 -1.53536,-0.13463 -3.06471,-0.35873 -4.58007,-0.66602 -1.59914,-0.32428 -3.18301,-0.7393 -4.74414,-1.23633 -1.65085,-0.52558 -3.27672,-1.14297 -4.87305,-1.83593 -1.68645,-0.7321 -3.34082,-1.55 -4.95899,-2.43946 -1.70197,-0.93551 -3.36469,-1.94973 -4.98828,-3.02929 -1.69375,-1.12622 -3.34393,-2.32318 -4.95312,-3.57813 -0.60135,-0.46898 -1.21037,-1.00699 -1.86328,-1.5664 -1.2882,-1.10374 -2.54765,-2.23084 -3.76563,-3.39258 -1.10479,-1.05377 -2.17513,-2.13557 -3.19726,-3.25391 -0.97633,-1.06822 -1.90811,-2.16853 -2.78321,-3.30664 -0.81548,-1.0606 -1.58188,-2.1552 -2.28515,-3.28125 -0.65526,-1.04917 -1.25528,-2.12731 -1.79297,-3.23242 -0.17498,-0.35964 -0.33299,-0.74523 -0.47852,-1.15234 -0.27041,-0.75649 -0.47126,-1.54327 -0.60351,-2.34375 -0.14139,-0.8557 -0.20297,-1.72523 -0.18555,-2.59375 0.0168,-0.83959 0.10761,-1.67557 0.27539,-2.49219 0.15078,-0.73393 0.36368,-1.45083 0.63867,-2.13672 0.2537,-0.63278 0.56119,-1.2389 0.91992,-1.80469 0.31911,-0.50329 0.67819,-0.9769 1.07618,-1.4082 0.36999,-0.40098 0.77564,-0.76924 1.20703,-1.0957 0.2492,-0.18861 0.50823,-0.36376 0.77539,-0.5254 0.16753,-0.10135 0.33772,-0.19659 0.51172,-0.2871 0.15469,-0.0805 0.31124,-0.15669 0.4707,-0.22852 0.13891,-0.0626 0.27965,-0.12174 0.42187,-0.17773 h 0.002 c 0.53762,-0.21183 0.77346,-0.56704 0.84765,-0.67188 0.0742,-0.10484 0.056,-0.0296 -0.16601,0.18945 -0.0505,0.0498 -0.0602,0.0453 -0.01,0.0176 0.0588,-0.0323 0.16253,-0.077 0.3086,-0.12695 0.15774,-0.054 0.33841,-0.10403 0.54297,-0.15235 0.25393,-0.06 0.52492,-0.11143 0.81054,-0.160152 0.49993,-0.08528 1.02661,-0.156542 1.57617,-0.230469 0.28751,-0.03868 0.58498,-0.0777 0.89258,-0.125 0.22497,-0.03459 0.467,-0.07486 0.72266,-0.128906 0.18631,-0.03938 0.41466,-0.09281 0.67578,-0.185547 0.14242,-0.05058 0.35274,-0.130363 0.59961,-0.292969 0.1562,-0.102926 0.39764,-0.277996 0.61523,-0.61914 l 0.002,-0.0039 c 0.11965,-0.188453 0.22703,-0.431838 0.27539,-0.740235 0.0307,-0.197705 0.0316,-0.386805 0.008,-0.558594 -0.0475,-0.343241 -0.16583,-0.587705 -0.26563,-0.753906 -0.18865,-0.313901 -0.38321,-0.476431 -0.48437,-0.5625 -0.21865,-0.186196 -0.40349,-0.290122 -0.52148,-0.357422 -0.25931,-0.147845 -0.49278,-0.251288 -0.68555,-0.333984 l -0.041,-0.01758 -0.14258,-0.05273 -0.10937,-0.03906 -0.10938,-0.03906 -0.10937,-0.03711 -0.10938,-0.03516 -0.11132,-0.03711 -0.10938,-0.0332 -0.10937,-0.0332 -0.10938,-0.03125 -0.10742,-0.03125 -0.11133,-0.0293 -0.10937,-0.0293 -0.10743,-0.02734 -0.10937,-0.02734 -0.10938,-0.02539 -0.10937,-0.02344 -0.10938,-0.02344 -0.10937,-0.02344 -0.10352,-0.02148 h -0.004 c -0.10833,-0.02098 -0.21711,-0.04036 -0.32617,-0.05859 -0.10817,-0.01809 -0.21754,-0.03541 -0.32618,-0.05078 -0.10804,-0.01529 -0.21618,-0.02843 -0.32421,-0.04102 -0.14352,-0.01671 -0.28626,-0.03091 -0.42969,-0.04297 -0.24981,-0.02099 -0.49927,-0.03543 -0.74805,-0.04297 -0.70815,-0.02146 -1.40802,0.01 -2.09375,0.08008 -0.75877,0.07756 -1.49933,0.201352 -2.2207,0.353516 -0.83157,0.175409 -1.63896,0.38791 -2.42578,0.613281 -1.46365,0.419233 -2.86314,0.88508 -4.23243,1.28125 -0.73647,0.21308 -1.4621,0.406545 -2.18164,0.5625 -0.62318,0.135073 -1.2409,0.241443 -1.84961,0.308594 -0.5484,0.0605 -1.08933,0.08886 -1.62109,0.07813 h -0.002 c -0.21373,-0.0043 -0.42452,-0.01616 -0.63477,-0.0332 -0.10579,-0.0086 -0.21157,-0.01741 -0.3164,-0.0293 -0.0791,-0.009 -0.15783,-0.02038 -0.23633,-0.03125 -0.079,-0.01094 -0.15809,-0.02231 -0.23633,-0.03516 -0.0766,-0.01257 -0.15204,-0.02455 -0.22852,-0.03906 l -0.006,-0.002 -0.0801,-0.01563 -0.0781,-0.01563 -0.0781,-0.01758 -0.0781,-0.01758 -0.0781,-0.01758 -0.0781,-0.01953 -0.0781,-0.01953 -0.0801,-0.01953 -0.0781,-0.02148 -0.0781,-0.02148 -0.0781,-0.02344 -0.0781,-0.02344 -0.0801,-0.02344 -0.0781,-0.02539 -0.0274,-0.0078 v -0.002 l -0.0547,-0.0293 -0.006,-0.002 c -0.11696,-0.06377 -0.23243,-0.128536 -0.34765,-0.195313 -0.1455,-0.08432 -0.29091,-0.172631 -0.4336,-0.261719 -0.14198,-0.08866 -0.28087,-0.178224 -0.41992,-0.271484 -0.16605,-0.111376 -0.33044,-0.225911 -0.49218,-0.34375 -0.24133,-0.175822 -0.47782,-0.359174 -0.70899,-0.548828 -0.66294,-0.543876 -1.28357,-1.144943 -1.85547,-1.791016 -0.63708,-0.719709 -1.21536,-1.497356 -1.73047,-2.318359 -0.55404,-0.883067 -1.03666,-1.816824 -1.44531,-2.785156 -0.45189,-1.070812 -0.81446,-2.183275 -1.08789,-3.320313 -0.29085,-1.209528 -0.47964,-2.445576 -0.56836,-3.689453 -0.0884,-1.240006 -0.0767,-2.485731 0.0391,-3.720703 0.10502,-1.119969 0.29576,-2.229824 0.57422,-3.3125 0.21692,-0.843358 0.34488,-1.580278 0.52539,-2.177735 0.31314,-1.036419 0.71407,-2.04941 1.19532,-3.023437 0.52506,-1.062691 1.14571,-2.081572 1.84765,-3.042969 0.80558,-1.103354 1.71851,-2.132291 2.71875,-3.070312 1.3376,-1.254392 2.83138,-2.346219 4.43164,-3.246094 1.3568,-0.762971 2.79083,-1.388615 4.27149,-1.855469 1.21452,-0.382938 2.46078,-0.660101 3.71875,-0.822265 l 1.03125,-0.132813 0.0586,-0.144531 c 0.35304,-0.09775 0.70212,-0.20676 1.06055,-0.285156 1.07995,-0.23621 2.18359,-0.38599 3.29297,-0.449219 z m 16.08203,37.802734 c -3e-5,1.54e-4 2e-5,0.0038 0,0.0039 l -0.002,0.002 c 9e-5,-4.56e-4 0.002,-0.0053 0.002,-0.0059 z"
       id="path159" /><path
       style="baseline-shift:baseline;display:inline;overflow:visible;vector-effect:none;fill:#f6c3c1;paint-order:stroke fill markers;filter:url(#filter161);enable-background:accumulate;stop-color:#000000;stop-opacity:1"
       d="m 236.30126,55.458178 c -11.60271,1.276212 -21.03334,12.030872 -20.93312,23.68556 -0.26919,7.976284 3.6339,17.098992 11.57791,19.91297 7.66681,1.530812 14.80488,-5.1371 22.42457,-2.321478 0.95896,2.403922 -5.62023,0.732506 -7.01379,3.076232 -7.2659,4.258928 -7.80647,15.006068 -2.88219,21.264958 7.53509,11.5309 19.01147,20.257 31.61336,25.59456 9.34805,3.59771 19.73762,4.13017 29.53905,2.43457 5.4225,-0.17552 6.98543,-6.16709 2.67536,-9.1519 -5.02116,-5.3905 -8.26106,-12.18472 -11.45261,-18.7572 -4.2331,-9.04058 -4.49517,-19.66181 -10.20819,-28.024493 -4.67205,-6.547201 -14.36695,-6.471239 -20.5793,-2.27409 -1.7047,1.078294 -6.05887,5.283747 -3.84657,0.468466 2.32404,-4.688917 7.70248,-6.898608 9.75736,-11.704912 1.39271,-10.179979 -5.43888,-21.035849 -15.45664,-23.849991 -4.86621,-1.688691 -10.28711,-1.939233 -15.2152,-0.353252 z"
       id="path160"
       sodipodi:nodetypes="cccccccccccccccc" /></g><g
     id="path1-7-4"
     inkscape:label="left_inside"
     style="opacity:1;filter:url(#filter157)"
     transform="matrix(1.3192739,-0.29021482,0.27114349,1.3313841,-211.51024,297.85593)"><path
       style="baseline-shift:baseline;display:inline;overflow:visible;vector-effect:none;fill:#6c97f4;paint-order:stroke fill markers;enable-background:accumulate;stop-color:#000000;stop-opacity:1"
       d="m 305.50586,32.767578 c -6.81652,0.417093 -13.52737,3.331471 -18.77344,7.65625 -2.63183,2.169638 -4.56446,5.158389 -5.25976,8.59375 -1.59799,7.89537 1.55622,16.061903 6.88671,21.558594 4.14211,4.271249 10.12073,3.85214 14.51368,4.386719 0.94173,0.114599 1.79201,0.266325 2.67773,0.398437 -1.39199,0.43139 -2.74176,1.035007 -3.9082,1.900391 -2.56639,1.904013 -4.44313,4.90649 -4.18164,8.390625 0.51572,6.87164 4.29697,12.273611 5.6582,17.929686 1.61798,6.7229 4.19286,13.02713 6.45313,19.34961 1.87634,5.24856 3.03928,11.63821 7.78906,16.36914 2.9198,2.90822 7.40733,3.36398 10.98828,1.60352 6.00081,-2.95012 8.93068,-9.06649 11.20508,-14.32422 3.76339,-8.69986 6.35974,-17.99214 7.24804,-27.474611 0.84301,-8.998888 1.09867,-19.18955 -4.01171,-27.480469 -3.35078,-5.436178 -10.45719,-6.663392 -15.91407,-4.699219 -0.74199,0.267075 -1.67455,0.560623 -2.59375,0.941406 1.72591,-2.117251 3.53007,-4.310172 5.01953,-6.970703 2.55868,-4.570397 3.23945,-10.486018 0.38282,-15.445312 -2.78868,-4.841319 -7.37336,-8.134832 -12.03711,-10.476563 l -0.0254,-0.01367 -0.0273,-0.01172 c -3.87249,-1.783725 -7.99993,-2.431897 -12.08984,-2.181641 z m 0.14453,3.451172 c 3.59188,-0.232594 7.17971,0.320948 10.48242,1.835937 4.30038,2.163007 8.27924,5.111578 10.58203,9.109375 2.14238,3.719308 1.66538,8.361671 -0.40429,12.058594 -2.27798,4.068997 -6.21377,7.341559 -8.73633,12.205078 -0.20783,0.400698 -0.38403,0.770097 -0.41992,1.341797 -0.0359,0.5717 0.35637,1.556201 1.02734,1.923828 0.67097,0.367628 1.16243,0.277713 1.53125,0.212891 0.36882,-0.06482 0.66844,-0.17322 0.96484,-0.298828 0.59282,-0.251217 1.1563,-0.583336 1.67188,-0.947266 0.51558,-0.36393 0.94861,-0.668803 1.37305,-1.287109 0.70535,-1.027537 2.31048,-1.498682 4.3164,-2.220703 4.11009,-1.479406 9.53904,-0.448596 11.83203,3.271484 4.41296,7.159429 4.34267,16.553636 3.51758,25.361328 -0.84983,9.071744 -3.34241,18.025444 -6.98047,26.435544 -2.22168,5.13589 -4.8889,10.304 -9.57031,12.60547 -2.34101,1.15089 -5.28255,0.81392 -7.05859,-0.95508 -3.82362,-3.80844 -4.97639,-9.49333 -6.97852,-15.09375 -2.29382,-6.41635 -4.81207,-12.60743 -6.34961,-18.99609 -1.56145,-6.488 -5.1455,-11.69838 -5.57226,-17.384766 -0.15977,-2.128815 0.95385,-4.008221 2.80664,-5.382812 1.85279,-1.374591 4.39035,-2.077308 6.5039,-1.757813 0.13582,0.02053 0.42485,0.09159 0.73242,0.171875 0.30758,0.08029 0.59583,0.177947 1.07227,0.21875 0.23822,0.0204 0.5474,0.121394 1.18359,-0.220703 0.3181,-0.171048 0.70372,-0.561045 0.85743,-1.007812 0.1537,-0.446767 0.10087,-0.833569 0.0332,-1.087891 -0.2707,-1.017287 -0.61035,-1.105114 -1.07617,-1.572266 -2.81427,-2.822304 -6.81051,-2.845024 -9.70508,-3.197265 -4.8509,-0.590307 -9.60714,-0.424292 -12.46484,-3.371094 -4.60883,-4.752524 -7.31796,-11.932156 -5.99024,-18.492187 0.52667,-2.602169 2.00571,-4.915266 4.08203,-6.626954 4.7187,-3.890023 10.73272,-6.462796 16.73633,-6.851562 z"
       id="path157" /><path
       style="baseline-shift:baseline;display:inline;overflow:visible;vector-effect:none;fill:#f6c4c2;paint-order:stroke fill markers;enable-background:accumulate;stop-color:#000000;stop-opacity:1;filter:url(#filter159)"
       d="m 316.87894,36.506648 c -9.57736,-4.411469 -21.08437,-1.331465 -29.05619,5.240377 -2.35407,1.940663 -4.05944,4.591961 -4.67042,7.610725 -1.46285,7.227701 1.4688,14.901374 6.43846,20.025981 3.4999,3.609026 8.86823,3.315597 13.49016,3.87804 3.00165,0.365272 6.50132,0.503608 8.69819,2.706751 1.62138,1.626003 -0.21218,0.762136 -1.33347,0.592635 -5.29503,-0.800425 -11.6965,3.350521 -11.27525,8.963471 0.47125,6.279013 4.15312,11.585098 5.61446,17.657132 1.57776,6.55579 4.12444,12.80303 6.40148,19.17245 1.93924,5.42449 3.09743,11.46192 7.38413,15.73161 2.34792,2.3386 6.06252,2.73497 9.0235,1.27929 5.34111,-2.6258 8.14009,-8.26785 10.38813,-13.46466 3.70073,-8.55498 6.24444,-17.67803 7.1135,-26.955143 0.83405,-8.90329 0.99687,-18.696576 -3.7648,-26.42175 -2.82188,-4.578129 -9.0891,-5.706052 -13.87259,-3.984263 -1.87023,0.67318 -3.98322,1.167152 -5.14811,2.864133 -0.6628,0.965547 -4.40001,3.0984 -3.21474,0.813193 2.31604,-4.465359 6.23327,-7.729853 8.71185,-12.157193 2.31418,-4.13366 2.89163,-9.412513 0.39212,-13.751814 -2.54799,-4.423484 -6.83349,-7.548022 -11.32041,-9.800965 z"
       id="path158" /></g><g
     inkscape:groupmode="layer"
     id="layer2"
     inkscape:label="conduction"
     style="display:inline" /></svg>
